2.5Hzhigh3min_grf.mot
version=1
nRows=30
nColumns 19
inDegrees=yes
endheader
time	1_ground_force_vx	1_ground_force_vy	1_ground_force_vz	1_ground_force_px	1_ground_force_py	1_ground_force_pz	1_ground_torque_x	1_ground_torque_y	1_ground_torque_z	2_ground_force_vx	2_ground_force_vy	2_ground_force_vz	2_ground_force_px	2_ground_force_py	2_ground_force_pz	2_ground_torque_x	2_ground_torque_y	2_ground_torque_z
            0.005000	           -0.321908	           -0.719159	           -0.460855	           -0.156393	            0.006101	           -0.373539	           -0.449877	           -0.267262	           -0.258062	           -0.131868	           -2.394770	            0.085374	           -0.166488	            0.005655	           -0.634062	           -0.225578	            0.046315	            0.037965
            0.005500	           -0.412291	           -1.622471	           -0.005933	           -0.156393	            0.006101	           -0.373539	           -0.525608	            0.306353	           -0.390879	            0.237634	           -0.920398	            0.137399	           -0.166488	            0.005655	           -0.634062	           -0.300685	            0.027407	           -0.037471
            0.006000	           -0.455662	           -1.446539	            1.003784	           -0.156393	            0.006101	           -0.373539	           -0.418819	            0.657960	           -0.466790	            0.378225	           -0.920225	            0.231196	           -0.166488	            0.005655	           -0.634062	           -0.394128	           -0.086969	            0.131816
            0.006500	           -0.408225	           -1.449283	            1.645653	           -0.156393	            0.006101	           -0.373539	           -0.464783	            0.454398	           -0.409199	            0.422396	           -0.183295	            0.186876	           -0.166488	            0.005655	           -0.634062	           -0.300497	           -0.019991	            0.000060
            0.007000	            0.048707	           -0.725772	            1.097336	           -0.156393	            0.006101	           -0.373539	           -0.441631	           -0.109253	           -0.392152	            0.374073	            0.186004	           -0.140287	           -0.166488	            0.005655	           -0.634062	           -0.357032	            0.027137	           -0.018597
            0.007500	           -0.044474	           -1.263835	            0.453262	           -0.156393	            0.006101	           -0.373539	           -0.489009	           -0.617554	           -0.435700	           -0.137371	           -0.920078	           -0.331722	           -0.166488	            0.005655	           -0.634062	           -0.394749	            0.074063	            0.038138
            0.008000	           -0.184085	           -1.080057	           -0.371030	           -0.156393	            0.006101	           -0.373539	           -0.453654	           -0.673583	           -0.329110	           -0.325435	           -0.736606	           -0.330985	           -0.166488	            0.005655	           -0.634062	           -0.300909	            0.111809	            0.151334
            0.008500	           -0.230252	           -1.800342	           -0.557432	           -0.156393	            0.006101	           -0.373539	           -0.483028	           -0.072796	           -0.328390	           -0.184097	           -0.921251	           -0.050134	           -0.166488	            0.005655	           -0.634062	           -0.357126	            0.055427	            0.000354
            0.009000	           -0.688927	           -1.079171	           -0.599058	           -0.156393	            0.006101	           -0.373539	           -0.500496	            0.435457	           -0.364539	            0.005235	           -1.472517	           -0.192969	           -0.166488	            0.005655	           -0.634062	           -0.262851	           -0.029644	            0.094262
            0.009500	           -0.548537	           -0.543459	            0.595173	           -0.156393	            0.006101	           -0.373539	           -0.570529	            0.675958	           -0.376287	            0.329484	           -0.368786	            0.467827	           -0.166488	            0.005655	           -0.634062	           -0.300174	           -0.105199	            0.037457
            0.010000	           -0.455143	           -0.546391	            1.282784	           -0.156393	            0.006101	           -0.373539	           -0.543563	            0.334185	           -0.411506	            0.425013	           -0.919554	            0.090392	           -0.166488	            0.005655	           -0.634062	           -0.262978	           -0.001084	            0.037812
            0.010500	           -0.042539	           -1.267177	            1.232813	           -0.156393	            0.006101	           -0.373539	           -0.503487	           -0.303334	           -0.415519	            0.193463	           -1.657328	            0.181719	           -0.166488	            0.005655	           -0.634062	           -0.375834	            0.027203	           -0.056290
            0.011000	            0.094046	           -1.085312	            0.866397	           -0.156393	            0.006101	           -0.373539	           -0.412602	           -0.682568	           -0.336320	            0.282888	           -0.549756	           -0.471372	           -0.166488	            0.005655	           -0.634062	           -0.338580	            0.121664	            0.000582
            0.011500	            0.275696	           -1.622928	            0.129928	           -0.156393	            0.006101	           -0.373539	           -0.475260	           -0.524658	           -0.496832	           -0.277214	           -1.105068	           -0.238463	           -0.166488	            0.005655	           -0.634062	           -0.300942	            0.112078	            0.075933
            0.012000	            0.182170	           -0.898934	           -0.554591	           -0.156393	            0.006101	           -0.373539	           -0.464864	            0.066129	           -0.329077	           -0.040951	           -1.656835	           -0.193606	           -0.166488	            0.005655	           -0.634062	           -0.319454	            0.036389	            0.075672
            0.012500	           -0.322345	           -1.439238	           -0.693226	           -0.156393	            0.006101	           -0.373539	           -0.496057	            0.555303	           -0.235597	            0.095050	           -0.368126	            0.045574	           -0.166488	            0.005655	           -0.634062	           -0.375359	           -0.086767	            0.094107
            0.013000	           -0.549853	           -1.442232	           -0.004818	           -0.156393	            0.006101	           -0.373539	           -0.525702	            0.620404	           -0.357806	            0.237573	           -0.919896	           -0.003385	           -0.166488	            0.005655	           -0.634062	           -0.394245	           -0.067660	            0.018782
            0.013500	           -0.914906	           -0.724386	            0.732878	           -0.156393	            0.006101	           -0.373539	           -0.444860	            0.130538	           -0.413367	            0.428275	           -1.839793	           -0.053678	           -0.166488	            0.005655	           -0.634062	           -0.262944	           -0.010537	            0.037779
            0.014000	           -0.638920	           -1.446771	            1.050095	           -0.156393	            0.006101	           -0.373539	           -0.532862	           -0.387294	           -0.328422	            0.475104	           -1.839457	           -0.100626	           -0.166488	            0.005655	           -0.634062	           -0.338461	            0.093172	            0.038182
            0.014500	            0.141028	           -1.087269	            1.324842	           -0.156393	            0.006101	           -0.373539	           -0.451157	           -0.672891	           -0.428219	            0.378081	           -0.919054	           -0.097301	           -0.166488	            0.005655	           -0.634062	           -0.357263	            0.093238	            0.000489
            0.015000	            0.460125	           -1.804927	            0.541404	           -0.156393	            0.006101	           -0.373539	           -0.361057	           -0.414100	           -0.376028	            0.002617	           -0.736259	           -0.096484	           -0.166488	            0.005655	           -0.634062	           -0.263217	            0.065085	            0.038048
            0.015500	            0.366908	           -0.901258	           -0.004775	           -0.156393	            0.006101	           -0.373539	           -0.526159	            0.214600	           -0.433258	           -0.230967	           -0.921253	           -0.097042	           -0.166488	            0.005655	           -0.634062	           -0.263063	            0.017956	            0.000179
            0.016000	            0.320172	           -1.620560	           -0.420456	           -0.156393	            0.006101	           -0.373539	           -0.508122	            0.574979	           -0.414889	            0.191387	           -1.104213	           -0.004022	           -0.166488	            0.005655	           -0.634062	           -0.281499	           -0.076706	            0.018700
            0.016500	           -0.412698	           -1.261350	           -0.141954	           -0.156393	            0.006101	           -0.373539	           -0.557513	            0.537346	           -0.371024	            0.236949	           -0.736082	            0.091128	           -0.166488	            0.005655	           -0.634062	           -0.300276	           -0.076841	            0.037558
            0.017000	           -0.916288	           -1.262627	            0.134433	           -0.156393	            0.006101	           -0.373539	           -0.381355	            0.083990	           -0.338512	            0.141858	           -0.367622	           -0.048302	           -0.166488	            0.005655	           -0.634062	           -0.394289	           -0.048957	            0.075400
            0.017500	           -1.097757	           -1.085739	            0.915211	           -0.156393	            0.006101	           -0.373539	           -0.470940	           -0.498419	           -0.348612	            0.376067	           -0.366441	           -0.142258	           -0.166488	            0.005655	           -0.634062	           -0.263200	            0.055767	            0.000314
            0.018000	           -0.363374	           -1.627770	            1.232063	           -0.156393	            0.006101	           -0.373539	           -0.409176	           -0.664278	           -0.355778	            0.424205	           -0.734234	           -0.237448	           -0.166488	            0.005655	           -0.634062	           -0.282334	            0.150293	           -0.018191
            0.018500	            0.276604	           -0.363034	            0.593898	           -0.156393	            0.006101	           -0.373539	           -0.476675	           -0.210769	           -0.401537	           -0.046165	           -0.184485	            0.046291	           -0.166488	            0.005655	           -0.634062	           -0.338402	            0.083517	            0.094698
            0.019000	            0.551272	           -0.722726	            0.408246	           -0.156393	            0.006101	           -0.373539	           -0.487467	            0.343953	           -0.387391	           -0.045562	           -0.368131	           -0.095150	           -0.166488	            0.005655	           -0.634062	           -0.300703	            0.045909	            0.075697
            0.019500	            0.596402	           -1.802738	            0.036647	           -0.156393	            0.006101	           -0.373539	           -0.452315	            0.648838	           -0.346582	            0.189414	           -0.551936	            0.044877	           -0.166488	            0.005655	           -0.634062	           -0.394229	           -0.067795	            0.056482
